<?xml version="1.0" standalone="no"?>
<!DOCTYPE svg PUBLIC "-//W3C//DTD SVG 20010904//EN"
 "http://www.w3.org/TR/2001/REC-SVG-20010904/DTD/svg10.dtd">
<svg version="1.0" xmlns="http://www.w3.org/2000/svg"
 width="512.000000pt" height="512.000000pt" viewBox="0 0 512.000000 512.000000"
 preserveAspectRatio="xMidYMid meet">
<metadata>
Created by potrace 1.11, written by Peter Selinger 2001-2013
</metadata>
<g transform="translate(0.000000,512.000000) scale(0.100000,-0.100000)"
fill="#000000" stroke="none">
<path d="M2303 4865 c-52 -22 -69 -71 -53 -152 0 -1 34 -36 74 -77 54 -54 76
-85 80 -108 6 -37 14 -92 22 -153 3 -22 11 -77 18 -122 14 -87 12 -97 -19 -99
-11 -1 -48 -5 -81 -8 l-62 -7 -15 68 c-9 37 -19 83 -22 100 -4 18 -10 35 -14
37 -9 6 -133 -22 -144 -33 -4 -4 3 -53 16 -108 l24 -102 -50 -16 c-27 -9 -53
-13 -57 -8 -4 4 -17 35 -30 68 -13 33 -26 65 -30 70 -4 6 -13 28 -20 50 -7 22
-21 57 -32 78 -17 34 -17 39 -3 68 56 108 -33 237 -156 226 -162 -14 -197
-238 -47 -300 43 -18 44 -19 106 -170 34 -84 62 -155 62 -158 0 -8 -89 -53
-94 -48 -2 2 -29 43 -60 92 -31 48 -58 87 -60 87 -17 0 -126 -84 -122 -93 3
-7 9 -20 12 -29 4 -10 10 -18 15 -18 5 0 9 -5 9 -11 0 -6 13 -29 28 -52 16
-23 32 -47 35 -53 4 -7 -21 -35 -61 -67 l-69 -55 -121 162 -122 163 0 97 c0
117 -14 156 -63 179 -45 22 -76 21 -107 0 -54 -36 -340 -334 -346 -360 -4 -15
-1 -44 7 -66 21 -61 60 -77 184 -77 l100 -1 120 -89 c66 -50 128 -96 137 -104
9 -8 28 -22 42 -31 l25 -16 -56 -70 c-52 -65 -57 -69 -77 -56 -91 59 -155 97
-163 97 -5 0 -15 -10 -21 -22 -6 -13 -22 -42 -37 -65 l-26 -42 88 -57 c48 -31
90 -58 92 -60 4 -3 -33 -77 -45 -93 -2 -2 -73 25 -159 60 -139 58 -156 67
-165 94 -46 133 -235 146 -295 19 -22 -47 -15 -121 16 -163 43 -58 134 -80
197 -47 28 14 34 13 181 -48 83 -35 154 -65 157 -68 3 -3 -2 -28 -11 -55 l-16
-50 -72 17 c-40 9 -88 20 -108 24 l-36 6 -17 -76 c-9 -42 -15 -78 -14 -79 2
-2 17 -5 33 -8 17 -3 63 -13 103 -22 l73 -17 -7 -66 c-4 -37 -8 -77 -8 -89 0
-17 -5 -21 -20 -18 -21 4 -72 11 -151 21 -22 3 -84 12 -137 20 l-97 14 -76 75
c-83 82 -121 97 -176 74 -64 -26 -69 -48 -69 -302 0 -281 8 -307 98 -323 45
-9 68 4 147 81 42 41 78 75 80 75 2 0 63 9 137 20 130 20 206 30 244 33 12 1
19 -5 20 -18 1 -11 4 -50 8 -86 l7 -67 -91 -21 c-50 -12 -98 -21 -106 -21 -8
0 -14 -3 -14 -7 2 -27 30 -137 37 -144 6 -6 49 0 110 14 l102 24 16 -49 c9
-28 14 -52 11 -55 -2 -3 -73 -33 -157 -68 -148 -62 -154 -63 -183 -48 -68 35
-164 6 -204 -63 -42 -72 -14 -182 57 -219 87 -45 201 -1 231 89 9 28 23 37
165 95 86 35 157 62 159 60 2 -2 14 -24 26 -49 21 -41 21 -45 6 -55 -9 -5 -51
-32 -92 -58 l-76 -48 23 -37 c12 -20 29 -49 38 -64 9 -16 21 -28 26 -28 6 0
48 25 95 55 l85 55 25 -29 c14 -16 39 -47 57 -68 l31 -40 -25 -19 c-14 -10
-87 -65 -162 -121 l-136 -102 -96 -1 c-53 0 -110 -5 -127 -11 -61 -21 -91
-108 -55 -159 31 -45 331 -338 353 -345 30 -10 83 2 108 24 33 28 42 65 42
168 l0 96 122 163 122 163 58 -49 c31 -26 63 -50 70 -52 8 -3 -7 -36 -45 -96
-32 -51 -56 -96 -52 -101 12 -21 129 -85 133 -73 3 10 98 159 108 171 4 4 94
-41 94 -48 0 -3 -28 -74 -62 -157 -62 -151 -62 -151 -108 -172 -112 -52 -127
-203 -28 -274 47 -33 140 -33 185 1 60 45 82 135 50 198 -16 29 -14 34 47 181
34 83 65 154 68 157 3 4 28 -1 55 -10 l50 -16 -18 -76 c-10 -42 -21 -91 -24
-109 l-5 -33 58 -11 c31 -6 67 -14 80 -17 14 -3 22 -1 22 8 0 8 9 56 21 107
l21 92 72 -6 c39 -4 77 -7 84 -7 10 0 15 -9 14 -27 -2 -29 -19 -159 -37 -270
-17 -114 -14 -108 -91 -186 -41 -42 -77 -86 -80 -98 -6 -26 0 -66 15 -95 25
-46 55 -51 301 -51 255 0 276 4 306 61 29 57 12 100 -72 185 -54 54 -75 83
-79 107 -2 17 -12 82 -20 142 -9 61 -18 126 -21 145 -2 19 -7 45 -9 57 -3 13
-2 23 2 24 5 0 16 2 26 4 10 2 47 6 82 9 l63 7 13 -58 c7 -32 13 -60 14 -63 1
-3 6 -24 10 -48 7 -37 11 -43 29 -39 12 3 47 11 79 18 l57 12 -6 36 c-4 20
-15 69 -24 109 l-17 72 50 15 c52 15 67 13 67 -11 0 -8 5 -22 10 -32 6 -9 32
-70 60 -136 46 -111 48 -120 35 -146 -37 -72 -6 -174 65 -210 90 -46 193 -8
224 85 28 80 -7 161 -85 197 -37 17 -48 29 -63 67 -11 25 -27 64 -36 86 -30
67 -70 168 -70 175 0 8 90 54 94 49 2 -2 29 -44 60 -92 55 -85 58 -88 79 -75
12 8 43 27 68 43 l46 28 -51 81 c-29 45 -55 86 -59 92 -4 7 21 34 61 67 l69
55 121 -161 122 -162 0 -96 c0 -115 11 -152 55 -179 40 -25 82 -26 116 -2 53
35 339 332 345 359 4 15 1 44 -7 66 -21 61 -61 77 -183 77 l-99 0 -163 122
-163 122 49 58 c26 31 50 63 52 70 3 8 37 -8 95 -45 49 -31 95 -57 100 -57 5
0 15 10 21 22 6 13 23 42 37 65 l26 43 -75 47 c-41 27 -83 53 -92 58 -15 10
-15 14 6 55 12 25 24 47 26 49 2 2 73 -25 159 -60 146 -60 156 -66 166 -97 43
-129 235 -140 293 -18 63 134 -81 280 -211 213 -30 -16 -33 -15 -124 24 -52
22 -119 50 -149 61 -30 11 -59 24 -63 28 -5 4 -1 30 8 57 l16 50 106 -24 c58
-13 107 -22 109 -20 9 8 32 143 26 149 -4 4 -18 9 -32 11 -14 3 -43 10 -65 16
-37 10 -79 19 -98 20 -5 1 -5 31 -1 69 4 37 7 76 8 87 1 16 7 19 31 17 30 -3
283 -38 342 -48 22 -3 55 -27 110 -80 80 -77 100 -88 145 -80 41 7 67 24 83
56 22 43 22 477 0 520 -20 39 -67 63 -111 57 -40 -6 -47 -11 -131 -94 -35 -35
-67 -63 -71 -64 -4 0 -16 -2 -27 -4 -29 -5 -94 -14 -145 -20 -25 -3 -54 -7
-65 -9 -11 -2 -45 -7 -75 -11 -30 -4 -62 -9 -70 -11 -10 -2 -16 3 -16 14 0 9
-4 49 -8 89 l-7 71 89 21 c49 12 97 21 107 21 13 0 16 6 12 23 -3 12 -11 48
-18 80 -7 31 -17 57 -23 57 -6 0 -55 -11 -108 -24 l-97 -23 -16 50 c-15 46
-15 50 2 63 10 7 23 14 28 14 6 0 68 25 139 55 126 53 130 54 159 38 106 -55
236 36 225 156 -16 164 -230 200 -300 51 -21 -46 -21 -46 -175 -109 -85 -35
-155 -62 -157 -60 -2 2 -14 24 -26 49 -21 41 -21 45 -6 55 9 5 51 31 92 58
l75 47 -23 40 c-13 22 -32 52 -44 67 l-21 27 -69 -44 c-38 -24 -79 -49 -90
-57 -20 -13 -25 -9 -77 55 l-55 69 120 89 c66 49 125 94 131 99 60 53 66 55
175 55 118 0 160 16 182 70 27 65 12 89 -170 270 -101 102 -179 172 -195 176
-44 11 -101 -12 -124 -50 -18 -28 -21 -50 -21 -136 l0 -103 -97 -131 c-54 -72
-104 -137 -111 -144 -6 -8 -17 -22 -22 -33 -10 -18 -16 -15 -81 37 -65 53 -69
58 -56 78 59 91 97 155 97 163 0 5 -10 15 -22 21 -13 6 -42 22 -65 37 l-42 26
-57 -88 c-31 -48 -58 -89 -59 -91 -3 -3 -84 35 -94 44 -2 2 25 73 60 159 58
142 67 156 95 165 129 43 144 227 24 291 -123 67 -271 -56 -224 -185 9 -23 16
-46 16 -53 1 -12 -111 -293 -122 -306 -10 -12 -109 23 -105 36 8 22 45 185 45
195 0 11 -137 45 -150 37 -5 -3 -11 -20 -15 -38 -4 -17 -14 -63 -22 -100 l-15
-68 -71 7 c-40 4 -77 7 -84 7 -21 0 -21 18 -3 132 10 61 21 135 24 165 12 103
16 110 92 186 75 76 89 100 80 146 -8 44 -26 69 -61 84 -48 20 -466 19 -512
-1z"/>
</g>
</svg>
